<?xml version="1.0" encoding="UTF-8"?>
<svg id="Layer_1" xmlns="http://www.w3.org/2000/svg" version="1.1" viewBox="0 0 278.1 278.1">
    <!-- Generator: Adobe Illustrator 29.5.0, SVG Export Plug-In . SVG Version: 2.1.0 Build 137)  -->
    <defs>
        <style>
            .st0 {
                fill: none;
                stroke: #fff;
                stroke-miterlimit: 10;
            }
        </style>
    </defs>
    <path
        d="M267,87.3c-2.3-42.5-36.9-75.1-77.2-73-24.6,1.3-45.8,15.3-57.9,35.7-14.2-20.8-37.4-33.8-62.8-32.5C28.6,19.7-2.2,57.2.1,101.4s37,78.2,77.4,76.1c15.5-.9,30.2-7,41.8-17.3,3.3,12,7.4,23.3,11.6,35.4.7,2,.1,4.2-1.5,5.6-15.6,13.8-48.9,41.5-59.8,53.1-21.8,22.2-26.5,34.6,8,11.2,24-15.1,51.3-29.7,70.7-47.9,11.2-9.4,10.2-21.1,4.7-33.4-5.9-12.1-9.3-24.1-11.2-39.2,14.2,15.2,34.3,24.2,56.1,23,40.4-2.1,71.3-38.3,69-80.8ZM73.3,152.7c-28,0-50.7-24.9-50.7-55.6s22.7-55.6,50.7-55.6,50.7,24.9,50.7,55.6-22.7,55.6-50.7,55.6ZM195.1,145.7c-27.8,0-50.3-23.9-50.3-53.3s22.5-53.3,50.3-53.3,50.3,23.9,50.3,53.3-22.5,53.3-50.3,53.3Z" />
    <path class="st0"
        d="M73.3,152.7c-28,0-50.7-24.9-50.7-55.6s22.7-55.6,50.7-55.6,50.7,24.9,50.7,55.6-22.7,55.6-50.7,55.6ZM195.1,145.7c-27.8,0-50.3-23.9-50.3-53.3s22.5-53.3,50.3-53.3,50.3,23.9,50.3,53.3-22.5,53.3-50.3,53.3Z" />
    <path class="st0"
        d="M73.3,152.7c-28,0-50.7-24.9-50.7-55.6s22.7-55.6,50.7-55.6,50.7,24.9,50.7,55.6-22.7,55.6-50.7,55.6ZM195.1,145.7c-27.8,0-50.3-23.9-50.3-53.3s22.5-53.3,50.3-53.3,50.3,23.9,50.3,53.3-22.5,53.3-50.3,53.3Z" />
    <circle cx="74.3" cy="96.5" r="15.7" />
    <circle cx="195.1" cy="92.4" r="15.7" />
</svg>